<svg xmlns="http://www.w3.org/2000/svg" viewBox="0 0 270.36 55"><defs><style>.cls-1{fill:#ffc600;}</style></defs><title>1</title><g id="Слой_2" data-name="Слой 2"><g id="Слой_1-2" data-name="Слой 1"><circle class="cls-1" cx="27.5" cy="27.5" r="27.5"/><path d="M70.93,36.82a8.33,8.33,0,0,1-3.26-3.1,9,9,0,0,1,0-9,8.33,8.33,0,0,1,3.26-3.1,10.42,10.42,0,0,1,8.62-.35,7.91,7.91,0,0,1,3,2.21L80,25.84a5.37,5.37,0,0,0-4.22-2,5.61,5.61,0,0,0-2.78.68,4.86,4.86,0,0,0-1.91,1.91,6,6,0,0,0,0,5.57A4.86,4.86,0,0,0,73,33.94a5.61,5.61,0,0,0,2.78.68,5.34,5.34,0,0,0,4.22-2l2.5,2.3a7.78,7.78,0,0,1-3,2.23,9.89,9.89,0,0,1-4,.77A9.65,9.65,0,0,1,70.93,36.82Z"/><path d="M88.19,36.81A8.37,8.37,0,0,1,84.9,33.7a8.94,8.94,0,0,1,0-8.9,8.37,8.37,0,0,1,3.29-3.11,10.4,10.4,0,0,1,9.42,0,8.57,8.57,0,0,1,0,15.12,10.4,10.4,0,0,1-9.42,0Zm7.4-2.87A4.91,4.91,0,0,0,97.48,32a6,6,0,0,0,0-5.57,4.91,4.91,0,0,0-1.88-1.91,5.62,5.62,0,0,0-5.38,0,4.9,4.9,0,0,0-1.88,1.91,6,6,0,0,0,0,5.57,4.9,4.9,0,0,0,1.88,1.91,5.62,5.62,0,0,0,5.38,0Z"/><path d="M120.31,37.65l0-10.08-4.94,8.3h-1.75l-4.92-8.09v9.86H105V20.85h3.22l6.29,10.44,6.19-10.44h3.19l0,16.8Z"/><path d="M139.09,21.59a5.76,5.76,0,0,1,2.53,2.11,5.82,5.82,0,0,1,.89,3.24,5.83,5.83,0,0,1-.89,3.23,5.66,5.66,0,0,1-2.53,2.11,9.47,9.47,0,0,1-3.88.73h-3.38v4.63h-3.89V20.85h7.27A9.34,9.34,0,0,1,139.09,21.59Zm-1.43,7.5a2.63,2.63,0,0,0,.91-2.15,2.66,2.66,0,0,0-.91-2.17A4.08,4.08,0,0,0,135,24h-3.17v5.83H135A4.08,4.08,0,0,0,137.66,29.09Z"/><path d="M155.5,34h-7.8l-1.49,3.6h-4l7.49-16.8h3.84l7.51,16.8H157Zm-1.22-3-2.66-6.43-2.66,6.43Z"/><path d="M178.22,20.85v16.8H175l-8.38-10.2v10.2h-3.84V20.85H166L174.38,31V20.85Z"/><path d="M190.27,31.69v6h-3.89v-6l-6.5-10.8H184l4.49,7.46L193,20.85h3.82Z"/><path d="M213,20.85v16.8h-1L200.59,23.05V37.65h-1.22V20.85h1l11.42,14.59V20.85Z"/><path d="M229.29,32.92h-9.74l-2.14,4.73h-1.32l7.73-16.8H225l7.73,16.8h-1.32Zm-.46-1-4.42-9.7L220,31.89Z"/><path d="M251.71,37.65l0-14.38-7,12.14h-.6l-7-12.1V37.65h-1.2V20.85h1l7.51,13,7.51-13h1l0,16.8Z"/><path d="M270.36,36.54v1.1H258.77V20.85H270V22H260v6.62h9v1.08h-9v6.89Z"/><polygon points="27.5 15.62 16.52 24.07 16.52 35.38 25.34 35.38 25.34 27.09 30.03 27.09 30.03 35.38 38.48 35.38 38.48 24.07 27.5 15.62"/></g></g></svg>